<svg width="44" height="44" viewBox="0 0 44 44" fill="none" xmlns="http://www.w3.org/2000/svg">
<circle cx="22" cy="22" r="22" fill="black"/>
<path d="M17.3978 25.8298L19.9202 25.2174L28.8784 16.2596C28.9684 16.1696 29.0189 16.0475 29.0189 15.9202C29.0189 15.793 28.9684 15.6709 28.8784 15.5809L27.8603 14.5628C27.7703 14.4728 27.6482 14.4223 27.521 14.4223C27.3937 14.4223 27.2716 14.4728 27.1816 14.5628L18.136 23.6079L17.3978 25.8298V25.8298ZM16.6979 22.3306L25.8232 13.2054C26.2733 12.7553 26.8837 12.5024 27.5202 12.5024C28.1568 12.5024 28.7672 12.7553 29.2173 13.2054L30.2358 14.223C30.4588 14.4458 30.6356 14.7104 30.7563 15.0017C30.8769 15.2929 30.939 15.605 30.939 15.9202C30.939 16.2355 30.8769 16.5476 30.7563 16.8388C30.6356 17.1301 30.4588 17.3947 30.2358 17.6175L21.183 26.6703C20.9961 26.8573 20.7613 26.9891 20.5043 27.0514L17.009 27.9001C16.7591 27.9608 16.4976 27.9534 16.2516 27.8789C16.0055 27.8043 15.7839 27.6653 15.6098 27.4762C15.4357 27.287 15.3153 27.0547 15.2613 26.8034C15.2073 26.552 15.2215 26.2908 15.3026 26.0468L16.3494 22.8951C16.4201 22.6824 16.5394 22.4891 16.6979 22.3306V22.3306ZM27.76 30.6399C27.76 30.8945 27.6589 31.1387 27.4788 31.3188C27.2988 31.4988 27.0546 31.5999 26.8 31.5999H15.76C15.5054 31.5999 15.2612 31.4988 15.0812 31.3188C14.9011 31.1387 14.8 30.8945 14.8 30.6399C14.8 30.3853 14.9011 30.1411 15.0812 29.9611C15.2612 29.7811 15.5054 29.6799 15.76 29.6799H26.8C26.9261 29.6799 27.0509 29.7048 27.1674 29.753C27.2839 29.8012 27.3897 29.872 27.4788 29.9611C27.568 30.0503 27.6387 30.1561 27.6869 30.2726C27.7352 30.389 27.76 30.5139 27.76 30.6399V30.6399Z" fill="white"/>
<path d="M23.92 16.1575L25.2774 14.8L28.3322 17.8548L26.9747 19.2122L23.92 16.1575Z" fill="white"/>
</svg>
