<svg width="173" height="36" viewBox="0 0 173 36" fill="none" xmlns="http://www.w3.org/2000/svg">
<g clip-path="url(#clip0_1_4)">
<path d="M28.5043 13.3194C28.5043 12.671 28.4815 12.0189 28.3905 11.3781C28.2351 10.3127 27.6967 9.50894 26.7223 8.95159C21.9829 6.22932 17.2588 3.47671 12.5346 0.727894C10.9308 -0.204808 9.30427 -0.242722 7.68911 0.64069C6.07015 1.52789 4.44361 2.4151 2.88531 3.39709C1.08058 4.53074 0.0303383 6.18382 0.0227554 8.36391C6.59248e-06 13.0426 -0.0151593 18.7222 0.0189639 23.5108C0.0227554 23.78 0.0227554 24.053 0.0265469 24.3184C0.0265469 24.4359 0.0303383 24.5535 0.0417128 24.671C0.386736 27.6966 2.97252 30.0473 6.11565 30.0473C6.78674 30.0473 7.43508 29.9412 8.03792 29.7364L8.891 29.3876L23.1393 23.507V28.6824L15.0066 32.0227L14.6237 32.1781C14.146 32.4511 13.8237 32.9668 13.8237 33.5544C13.8237 34.0814 14.0853 34.5478 14.4796 34.8284L14.7109 34.9687L15.6247 35.5184C15.7384 35.5867 17.6493 36.5687 20.201 35.5184L20.5915 35.3592C20.6104 35.3516 20.6294 35.3478 20.6408 35.3402L24.5801 33.7175C28.1593 32.2426 28.4853 28.2729 28.5156 27.5639L28.5043 13.3194ZM23.2076 17.7933L12.0114 22.3924L5.28152 25.1563V20.0871C5.28152 19.435 5.28152 18.7184 5.28531 17.9715V10.7032C5.28531 9.22458 5.99053 7.91652 7.07489 7.07102C7.09005 7.05965 7.10143 7.04448 7.11659 7.03311L7.16588 7.00278C7.6474 6.64638 8.20475 6.38477 8.8038 6.2369C8.82276 6.23311 8.83792 6.22552 8.85309 6.22173L9.12986 6.16486C9.18295 6.15728 9.24361 6.1459 9.30048 6.13832C9.36873 6.13074 9.44456 6.11936 9.51659 6.11178C9.63792 6.10041 9.75546 6.09661 9.88058 6.09282H9.93366H9.94124C10.0057 6.09282 10.0739 6.10041 10.1422 6.10041C10.1953 6.1042 10.2521 6.10799 10.309 6.11178H10.3204C10.3773 6.11557 10.4265 6.12316 10.4834 6.12695C10.4948 6.13074 10.5024 6.13074 10.5138 6.13074C10.6085 6.14211 10.7071 6.15728 10.7943 6.17624L10.8626 6.18761H10.8701C10.8815 6.1914 10.8929 6.1914 10.9043 6.19519C11.7953 6.37718 12.3564 6.76391 12.3564 6.76391L12.364 6.76012C15.5299 8.67481 18.764 10.4758 21.9905 12.2881C22.8891 12.7923 23.2152 13.4824 23.2076 14.4758C23.1886 16.0378 23.2 16.2312 23.2076 17.7933Z" fill="black"/>
<path d="M68.4663 12.9327H63.0787L63.1052 28.6445H59.2L59.1735 12.9327H53.3384V9.66064H69.8957L68.4663 12.9327Z" fill="black"/>
<path d="M49.418 18.4265C48.5687 17.9412 47.2076 17.49 45.3308 17.0654C42.7867 16.5838 41.6076 15.7346 41.7896 14.5213C41.9109 13.2511 42.9081 12.5838 44.7886 12.5232C46.9687 12.5232 48.2085 13.4938 48.5119 15.4312H52.5119C52.5119 15.4312 52.4626 14.2407 51.8673 12.9857H51.8597C50.7109 10.5099 48.2654 9.29664 44.5119 9.34593C40.2161 9.52412 37.9147 11.2492 37.6114 14.5213C37.4901 17.308 39.2455 19.0938 42.8777 19.8786C43.4237 20 44.2389 20.2426 45.3308 20.6066C45.7517 20.7279 46.0588 20.8189 46.2408 20.8796C47.9356 21.4862 48.7507 22.3658 48.6938 23.5146C48.5725 25.0919 47.4502 25.9071 45.3346 25.9677C42.6692 26.0284 41.1564 24.6673 40.7924 21.8805H36.9782C36.9782 21.8805 36.8076 25.2132 39.8787 27.5601C41.2815 28.5232 43.1583 28.9933 45.5128 28.963C50.237 28.8417 52.6863 26.9649 52.8683 23.3327C52.8114 21.1526 51.6588 19.5146 49.418 18.4265Z" fill="black"/>
<path d="M114.863 18.1914V21.3687H116.087H119.617C119.617 21.3687 119.594 21.5317 119.534 21.7895C119.34 22.6729 118.999 23.363 118.586 23.8748C115.886 27.1962 109.748 25.4673 109.13 21.1374C108.967 19.9886 109.005 18.8056 109.213 17.6644C109.547 15.8635 110.4 14.1156 112.121 13.2891C112.713 13.0047 113.456 12.762 114.119 12.762C116.542 12.762 118.176 13.7023 119.026 15.5753H122.931C122.036 10.8587 118.009 9.71749 115.534 9.47105C115.481 9.46726 115.424 9.45967 115.371 9.45588C115.31 9.45209 115.245 9.44451 115.189 9.44072C115.033 9.42934 114.878 9.42176 114.718 9.41417C114.665 9.41417 114.612 9.41038 114.563 9.41038H114.559C114.279 9.4028 114.047 9.40659 113.877 9.41417C108.171 9.76678 105.16 13.0009 104.861 19.1203C105.092 25.1336 108.038 28.3791 113.676 28.8758C113.676 28.8758 124.224 30.017 123.139 18.1952H114.863V18.1914Z" fill="black"/>
<path d="M78.3583 9.66064H76.9175H74.4531H73.0123L66.29 28.6445H70.1953L72.8038 21.2853L75.6853 13.145L78.5668 21.2853H74.2521L73.1488 24.5573H79.727L81.1716 28.6445H85.0806L78.3583 9.66064Z" fill="black"/>
<path d="M140.485 12.9327H145.877L145.846 28.6445H149.752L149.782 12.9327H155.617V9.66064H139.06L140.485 12.9327Z" fill="black"/>
<path d="M130.597 9.66064H132.034H134.502H135.939L142.662 28.6445H138.756L136.152 21.2853L133.266 13.145L130.385 21.2853H134.703L135.807 24.5573H129.228L127.78 28.6445H123.875L130.597 9.66064Z" fill="black"/>
<path d="M99.8597 20.6027C99.9659 20.5458 100.072 20.4852 100.178 20.4169L100.205 20.398C100.664 20.1098 101.134 19.7193 101.539 19.1961C101.566 19.162 101.596 19.124 101.623 19.0899C101.638 19.071 101.653 19.0482 101.668 19.0293C102.085 18.4492 102.233 17.9904 102.233 17.9904V17.9866C102.457 17.433 102.616 16.7885 102.673 16.0264C102.692 15.7875 102.707 15.5449 102.707 15.2909C102.707 15.2871 102.707 15.2833 102.707 15.2795C102.81 9.67949 96.2237 9.69086 96.2237 9.69086H96.2161C95.9924 9.6757 95.7687 9.66053 95.5337 9.65674H92.1479V12.9477H92.891H95.4996H96.8493C98.2408 12.9477 99.3668 14.0776 99.3668 15.4653C99.3668 16.7923 98.3432 17.8766 97.0427 17.9752V17.9866H95.4996H92.1479V21.2776H93.7176H96.0569L98.5782 28.6444H102.938L99.8597 20.6027Z" fill="black"/>
<path d="M90.8057 17.9905V12.9554V9.66064H86.9005V28.6445H90.8057V21.2853V17.9905Z" fill="black"/>
<path d="M172.197 25.5544H162.999V28.6407H172.197V25.5544Z" fill="black"/>
<path d="M161.665 9.66064H157.755V28.6407H161.665V9.66064Z" fill="black"/>
<path d="M172.197 9.66064H162.999V12.9289H172.197V9.66064Z" fill="black"/>
<path d="M172.197 17.3801H162.999V20.6484H172.197V17.3801Z" fill="black"/>
</g>
<defs>
<clipPath id="clip0_1_4">
<rect width="172.197" height="36" fill="white"/>
</clipPath>
</defs>
</svg>
